:SAMPLES-PER-SECOND 30
:FRAME-RANGE 1-663
:FULLY-SPECIFIED
:DEGREES
291
root  -27.3869 38.3105 78.1163 -174.102 56.3619 -176.654
RightUpLeg  -22.7813 3.2948 6.13064
RightLeg  6.91773 -7.5415 0.613155
RightFoot  -0.967723 -0.714018 7.78084
RightToes  -3.4386e-010 1.2921e-014 -6.02303e-014
Spine  -1.61786 -8.70335 -10.9779
Spine1  6.1963 -10.4424 7.55082
HEad  21.9941 -26.0959 7.1919
LeftShoulder1  3.19747 -9.93393 -17.7868
LeftArm  28.2466 -32.0927 -54.8723
LeftForeArm  -16.2356 -20.4812 -7.09708
LeftHand  0.186156 1.2059 -5.39819
RightShoulder  1.00318 -0.110121 25.2022
RightArm  -16.6667 0.602325 47.0417
RightForeArm  7.38753 34.1622 7.2083
RightHand  -0.0938138 -1.49529 -2.58833
LeftUpLeg  -1.49124 5.51492 -7.02786
LeftLeg  17.4247 15.4573 4.60402
LeftFoot  -18.6765 0.235661 1.92719
LeftToes  -7.12384e-010 -7.51861e-011 -8.34901e-011
292
root  -26.9519 38.2503 77.4215 -174.612 56.2594 -177.115
RightUpLeg  -22.2422 1.61501 6.26163
RightLeg  8.40187 -9.2035 0.27366
RightFoot  -0.840123 -0.55108 5.92816
RightToes  -3.4386e-010 1.2921e-014 -6.02303e-014
Spine  -2.16118 -8.92064 -10.3659
Spine1  6.6104 -10.7961 7.80026
HEad  21.3631 -25.2466 6.53851
LeftShoulder1  3.28156 -10.1842 -17.9757
LeftArm  27.428 -33.0682 -55.8891
LeftForeArm  -15.0963 -19.794 -7.49685
LeftHand  0.1841 1.23408 -5.4076
RightShoulder  0.951925 -0.253994 24.9773
RightArm  -17.8115 0.174444 46.3418
RightForeArm  7.36755 35.7514 7.65107
RightHand  -0.0901687 -1.92317 -2.71361
LeftUpLeg  -0.51293 6.34583 -7.66904
LeftLeg  18.2038 14.4963 4.7597
LeftFoot  -18.8156 0.187986 1.1492
LeftToes  -7.12384e-010 -7.51861e-011 -8.34901e-011
293
root  -26.5271 38.2682 76.7122 -174.651 56.4637 -177.054
RightUpLeg  -22.0183 1.25833 6.45127
RightLeg  10.0543 -8.51954 -0.109452
RightFoot  -0.00611141 -0.159947 1.61053
RightToes  -3.4386e-010 1.2921e-014 -6.02303e-014
Spine  -2.61946 -9.02018 -8.90092
Spine1  7.01904 -11.0312 7.85194
HEad  20.4852 -24.0934 5.85937
LeftShoulder1  3.32836 -10.372 -17.9837
LeftArm  27.127 -33.9306 -56.9413
LeftForeArm  -14.6212 -19.379 -7.76277
LeftHand  0.180035 1.31299 -5.27016
RightShoulder  0.890537 -0.437761 24.8074
RightArm  -18.808 -0.228873 45.4674
RightForeArm  7.53793 37.5391 8.16166
RightHand  -0.0755285 -2.26034 -2.39207
LeftUpLeg  0.065412 8.73484 -7.83264
LeftLeg  19.505 12.0669 4.84239
LeftFoot  -18.2454 0.10195 -0.124332
LeftToes  -7.12384e-010 -7.51861e-011 -8.34901e-011
294
root  -26.0996 38.2817 76.0425 -174.127 57.1453 -176.153
RightUpLeg  -22.1345 2.17751 6.97075
RightLeg  12.3305 -8.23124 -1.23144
RightFoot  2.68585 -0.00589469 0.197004
RightToes  -3.4386e-010 1.2921e-014 -6.02303e-014
Spine  -2.31901 -8.92522 -7.36243
Spine1  6.94487 -11.1734 8.40594
HEad  19.4302 -22.5036 5.33075
LeftShoulder1  3.38292 -10.5188 -18.1307
LeftArm  25.7484 -34.6515 -57.8181
LeftForeArm  -13.1494 -18.7252 -8.11279
LeftHand  0.179187 1.21994 -5.26161
RightShoulder  0.850118 -0.558139 24.6758
RightArm  -19.6489 -0.181305 44.6237
RightForeArm  7.69905 39.0225 8.60541
RightHand  -0.0600076 -2.64586 -1.97677
LeftUpLeg  -0.623935 11.6935 -7.01223
LeftLeg  23.6156 9.0365 4.63632
LeftFoot  -17.3223 -0.0334122 -2.62698
LeftToes  -7.12384e-010 -7.51861e-011 -8.34901e-011
295
root  -25.6905 38.2184 75.393 -173.719 58.4892 -175.575
RightUpLeg  -22.6073 1.05174 7.59581
RightLeg  15.5054 -5.57684 -1.49583
RightFoot  1.82463 0.0919569 -0.688566
RightToes  -3.4386e-010 1.2921e-014 -6.02303e-014
Spine  -2.12256 -8.85345 -5.99861
Spine1  7.15053 -11.1815 8.52374
HEad  18.4294 -20.4792 5.21767
LeftShoulder1  3.38106 -10.6548 -17.8574
LeftArm  24.3671 -35.3463 -58.2204
LeftForeArm  -12.3487 -18.2071 -8.3927
LeftHand  0.175853 1.20298 -5.10501
RightShoulder  0.858349 -0.533803 24.7056
RightArm  -20.5379 0.62844 44.3473
RightForeArm  8.09284 39.8772 8.85146
RightHand  -0.0533507 -2.83621 -1.77056
LeftUpLeg  -3.18961 15.0981 -6.04485
LeftLeg  30.9387 5.34778 3.80394
LeftFoot  -14.9865 -0.109102 -6.24388
LeftToes  -7.12384e-010 -7.51861e-011 -8.34901e-011
296
root  -25.3137 38.1776 74.8145 -173.682 59.8721 -175.543
RightUpLeg  -22.9592 1.35139 7.50279
RightLeg  18.0557 -4.47274 -1.6663
RightFoot  1.13788 0.245055 -2.16884
RightToes  -3.4386e-010 1.2921e-014 -6.02303e-014
Spine  -1.80833 -8.82354 -5.19565
Spine1  7.30681 -11.2335 8.8875
HEad  18.2807 -18.5665 5.02466
LeftShoulder1  3.40193 -10.8736 -17.6108
LeftArm  22.338 -36.1768 -58.2286
LeftForeArm  -11.034 -17.1951 -8.98322
LeftHand  0.174604 1.23858 -5.09859
RightShoulder  0.865037 -0.506581 24.6429
RightArm  -21.1875 1.55803 44.4333
RightForeArm  8.38958 40.5239 9.0423
RightHand  -0.0522524 -3.04627 -1.82181
LeftUpLeg  -6.93039 17.7768 -5.02907
LeftLeg  39.5395 1.64436 1.8381
LeftFoot  -9.98448 0.190968 -11.0623
LeftToes  -7.12384e-010 -7.51861e-011 -8.34901e-011
297
root  -24.9959 38.1515 74.2694 -173.521 61.0862 -175.416
RightUpLeg  -22.9996 2.27079 7.15018
RightLeg  19.8261 -4.20594 -1.80285
RightFoot  0.0780937 0.277473 -2.76752
RightToes  -3.4386e-010 1.2921e-014 -6.02303e-014
Spine  -1.3562 -8.87433 -4.19708
Spine1  7.33008 -11.3181 9.138
HEad  18.94 -16.6816 4.4037
LeftShoulder1  3.3974 -11.0097 -17.3282
LeftArm  19.4806 -37.3144 -58.188
LeftForeArm  -8.88873 -15.5805 -9.88363
LeftHand  0.174845 1.17437 -5.1365
RightShoulder  0.883929 -0.435764 24.5405
RightArm  -21.2777 2.64666 44.552
RightForeArm  8.34096 41.0017 9.20345
RightHand  -0.0555228 -3.4185 -1.85047
LeftUpLeg  -11.3316 19.0857 -3.99832
LeftLeg  48.1444 -0.57947 -0.260676
LeftFoot  -4.19175 0.947867 -14.7054
LeftToes  -7.12384e-010 -7.51861e-011 -8.34901e-011
298
root  -24.7058 38.1214 73.7314 -173.131 62.8719 -174.994
RightUpLeg  -22.8361 2.0955 7.02853
RightLeg  21.23 -2.404 -1.19718
RightFoot  -1.25205 0.220998 -2.59787
RightToes  -3.4386e-010 1.2921e-014 -6.02303e-014
Spine  -0.856694 -8.66577 -3.10155
Spine1  7.27696 -11.0983 9.2055
HEad  19.5066 -15.0793 4.00708
LeftShoulder1  3.42068 -11.1419 -17.2666
LeftArm  15.7448 -38.3091 -57.9634
LeftForeArm  -6.36033 -13.9456 -10.5756
LeftHand  0.171029 1.32712 -4.96803
RightShoulder  0.91707 -0.319253 24.4559
RightArm  -20.9337 4.2629 44.7309
RightForeArm  7.68669 40.6865 9.14131
RightHand  -0.0571679 -3.77877 -2.25607
LeftUpLeg  -15.1247 20.1269 -3.13232
LeftLeg  54.5868 -1.51055 -1.79434
LeftFoot  -1.46092 1.24276 -14.218
LeftToes  -7.12384e-010 -7.51861e-011 -8.34901e-011
